<svg width="64" height="63" viewBox="0 0 64 63" fill="none" xmlns="http://www.w3.org/2000/svg">
<path d="M41.7866 19.0299L38.1819 7.93566C36.2361 1.94714 27.7639 1.94714 25.8181 7.93566L22.2134 19.0299C22.0126 19.6479 21.4367 20.0664 20.7868 20.0664H9.12164C2.82494 20.0664 0.206895 28.1239 5.30104 31.825L14.7384 38.6816C15.2641 39.0636 15.4841 39.7406 15.2833 40.3586L11.6785 51.4529C9.73274 57.4414 16.5869 62.4212 21.681 58.7201L31.1183 51.8635C31.6441 51.4815 32.3559 51.4815 32.8817 51.8635L42.319 58.7201C47.4131 62.4212 54.2673 57.4414 52.3215 51.4529L48.7167 40.3586C48.5159 39.7406 48.7359 39.0636 49.2616 38.6816L58.699 31.825C63.7931 28.1239 61.1751 20.0664 54.8784 20.0664H43.2132C42.5633 20.0664 41.9874 19.6479 41.7866 19.0299Z" fill="#98C0F6" fill-opacity="0.4" stroke="#98C0F6" stroke-width="5"/>
</svg>
